<svg xmlns="http://www.w3.org/2000/svg" xmlns:xlink="http://www.w3.org/1999/xlink" preserveAspectRatio="xMidYMid" width="21" height="21" viewBox="0 0 21 21">
  <defs>
    <style>
      .cls-1 {
        fill: #8f9aa3;
        fill-rule: evenodd;
      }
    </style>
  </defs>
  <path d="M10.500,21.000 C4.710,21.000 -0.001,16.290 -0.001,10.500 C-0.001,4.710 4.710,-0.000 10.500,-0.000 C16.289,-0.000 21.000,4.710 21.000,10.500 C21.000,16.290 16.289,21.000 10.500,21.000 ZM10.500,1.865 C5.739,1.865 1.865,5.739 1.865,10.500 C1.865,15.261 5.739,19.135 10.500,19.135 C15.261,19.135 19.134,15.261 19.134,10.500 C19.134,5.739 15.261,1.865 10.500,1.865 ZM15.160,13.842 L13.841,15.161 L9.567,10.887 L9.567,10.501 C9.567,10.501 9.561,5.421 9.567,4.826 L11.432,4.846 C11.427,5.339 11.431,8.920 11.432,10.113 L15.160,13.842 Z" class="cls-1"/>
</svg>
